<svg version="1.0" xmlns="http://www.w3.org/2000/svg" width="285.000000pt" height="271.000000pt" viewBox="0 0 285.000000 271.000000" preserveAspectRatio="xMidYMid meet">
<g transform="translate(0.000000,271.000000) scale(0.100000,-0.100000)" fill="#FFFFFF" stroke="none">
<path d="M1205 2589 c-98 -62 -214 -199 -279 -327 -42 -83 -85 -223 -101 -329&#10;-18 -117 -19 -353 -4 -493 7 -55 10 -102 8 -104 -2 -2 -35 2 -74 10 -38 7 -92&#10;13 -119 14 -47 0 -53 -3 -100 -52 -53 -56 -107 -154 -127 -232 -6 -26 -10 -86&#10;-7 -139 5 -106 27 -160 80 -200 61 -45 1230 -639 1268 -644 50 -7 104 22 191&#10;104 159 150 258 349 295 593 17 114 18 355 3 486 -6 52 -9 97 -6 100 2 3 47&#10;-3 100 -12 54 -10 107 -14 123 -10 44 12 108 86 155 182 41 82 44 92 47 189 5&#10;121 -12 187 -59 233 -17 16 -301 169 -637 342 -687 355 -667 347 -757 289z&#10;m125 -95 c16 -42 11 -123 -15 -238 -13 -60 -26 -111 -28 -113 -2 -2 -33 10&#10;-68 27 -111 52 -146 39 -188 -76 -51 -134 -78 -385 -49 -448 6 -14 30 -35 52&#10;-45 34 -17 657 -135 1021 -194 93 -15 86 0 106 -212 28 -302 -19 -562 -137&#10;-766 -50 -85 -188 -224 -233 -234 -53 -11 -66 9 -66 108 0 82 39 267 55 267 5&#10;0 37 -13 72 -30 77 -37 102 -37 132 -5 72 78 137 448 93 535 -25 51 -52 58&#10;-826 194 -172 31 -317 56 -321 56 -16 0 -35 211 -34 380 1 198 18 305 73 447&#10;90 232 321 454 361 347z m240 -88 c63 -32 232 -119 375 -193 143 -75 330 -171&#10;415 -215 85 -44 167 -93 182 -108 31 -33 44 -109 34 -194 -9 -67 -62 -179&#10;-107 -228 l-35 -36 -99 18 c-55 10 -311 57 -570 105 -259 48 -498 91 -532 97&#10;l-61 11 53 69 c128 168 190 360 211 646 3 51 9 92 13 90 3 -2 58 -30 121 -62z&#10;m-326 -369 c16 -22 17 -29 6 -63 -23 -70 -92 -203 -126 -241 -33 -37 -34 -38&#10;-50 -18 -12 16 -14 34 -9 85 9 98 53 292 67 301 16 10 86 -30 112 -64z m-281&#10;-817 c177 -32 435 -80 572 -105 138 -25 273 -50 302 -56 l51 -10 -54 -72 c-29&#10;-39 -67 -96 -83 -127 -63 -118 -121 -341 -121 -465 0 -29 -3 -73 -6 -99 l-7&#10;-46 -61 34 c-33 18 -191 100 -351 182 -707 363 -677 346 -699 384 -17 28 -21&#10;52 -21 125 1 83 4 97 36 166 35 72 91 149 110 149 5 0 154 -27 332 -60z m1033&#10;-236 c8 -30 0 -94 -27 -234 -31 -155 -35 -159 -107 -113 -59 39 -68 67 -42&#10;134 47 121 125 239 157 239 7 0 16 -11 19 -26z"/>
<path d="M1720 2263 c0 -1 147 -100 328 -219 180 -119 340 -228 355 -242 35&#10;-33 55 -70 77 -142 l17 -55 11 66 c7 36 12 89 12 118 0 45 -4 57 -27 78 -23&#10;21 -773 405 -773 396z"/>
<path d="M550 1015 c-16 -109 -8 -148 33 -179 27 -20 771 -397 757 -383 -3 2&#10;-149 100 -325 217 -176 117 -335 226 -353 244 -41 38 -69 91 -78 145 -4 23&#10;-10 41 -14 41 -4 0 -13 -38 -20 -85z"/>
</g>
</svg>